<svg xmlns="http://www.w3.org/2000/svg" width="236.364" height="233.333" viewBox="0 0 236.364 233.333"><path fill="none" d="M99.425 188.042h5.256v-.618h-4.586V183.3h4.33v-.62h-4.33v-3.638h4.587v-.618h-5.255zM192.71 115.488l1.15-1.15v-4.08l-1.15-1.15h-9.97V98.76h8.47l1.116-1.15v-4.08l-1.115-1.15h-8.47v-6.272h9.97l1.15-1.15v-4.08l-1.15-1.15h-15.196l-1.15 1.15v33.46l1.15 1.152zM90.33 174.568l-3.79-9.66h-.426l-3.87 9.66h.744l1.343-3.395h3.91l1.335 3.395h.756zm-5.755-4l1.35-3.454c.138-.343.268-.724.387-1.145.154.482.286.858.393 1.13l1.312 3.468h-3.442zM101.18 169.72h-3.547v.63h2.86v3.382c-.618.25-1.37.374-2.257.374-1.368 0-2.406-.364-3.112-1.094-.705-.73-1.057-1.82-1.057-3.27 0-1.327.37-2.383 1.113-3.167.745-.78 1.75-1.175 3.017-1.175.896 0 1.758.193 2.594.58l.27-.605c-.832-.386-1.773-.578-2.823-.578-.967 0-1.827.205-2.574.617-.747.413-1.324.997-1.725 1.754-.4.758-.6 1.624-.6 2.602 0 1.57.402 2.784 1.213 3.642.81.857 1.972 1.287 3.49 1.287 1.164 0 2.21-.2 3.14-.595v-4.386zM88.91 179.054h3.127v8.988h.676v-8.988h3.126v-.63h-6.93zM151.277 86.244v28.093l1.15 1.15h4.08l1.147-1.15V86.244h5.334l1.15-1.15v-4.08l-1.15-1.15h-17.045l-1.148 1.15v4.08l1.148 1.15zM115.96 166.027l5.698 8.54h.676v-9.617h-.65v6.276c0 .71.02 1.46.06 2.25h-.04l-5.692-8.526h-.67v9.618h.645v-6.238c0-.518-.025-1.284-.08-2.303h.054zM114.29 182.705c.345-.44.513-.986.513-1.63 0-.888-.287-1.55-.855-1.992-.568-.44-1.45-.66-2.645-.66h-2.29v9.62h.67v-4.192h2.39l2.48 4.192h.804l-2.613-4.382c.693-.192 1.21-.51 1.547-.955zm-2.77.568h-1.837v-4.245h1.592c.992 0 1.707.168 2.146.5.44.335.66.867.66 1.6 0 .706-.226 1.24-.673 1.603-.446.36-1.077.543-1.888.543zM111.007 173.95h-4.587v-4.126h4.33v-.62h-4.33v-3.636h4.587v-.62h-5.257v9.62h5.257zM117.758 115.488l1.113-1.15V97.955l7.077 15.824v.557l.453.488.698.663h4.045l1.15-1.15V81.013l-1.15-1.15h-4.045l-1.15 1.15v17.15l-7.077-15.826v-1.324l-1.112-1.15h-4.078l-1.152 1.15v33.323l1.152 1.15zM130.46 152.847l1.15-1.15v-4.08l-1.15-1.15h-11.57V118.2l-1.152-1.15h-4.076l-1.15 1.15v33.496l1.15 1.15zM79.74 110.19c2.346 3.532 5.272 5.298 8.782 5.298 3.485 0 6.4-1.766 8.75-5.297.698-1.045 1.208-2.845 1.533-5.402.232-1.998.36-4.286.384-6.868v-1.045c0-5.715-.548-9.445-1.64-11.188-1.138-1.812-2.496-3.217-4.076-4.22-1.58-.998-3.23-1.497-4.95-1.497-3.254 0-6.043 1.568-8.366 4.708-.79 1.067-1.358 2.938-1.707 5.61-.277 2.09-.44 4.474-.487 7.146v.8c0 2.348.093 4.463.278 6.344.278 2.67.78 4.542 1.5 5.613zm4.564-12.654c.07-4.81.408-7.877 1.01-9.2 1.024-1.35 2.092-2.023 3.208-2.023 1.277 0 2.486.896 3.625 2.685.488 1.233.732 3.998.732 8.297v.59c-.047 4.65-.35 7.6-.907 8.855-1.092 1.602-2.242 2.405-3.45 2.405s-2.36-.804-3.452-2.405c-.51-1.185-.766-3.752-.766-7.704v-1.5zM84.677 184.7c0 .71.02 1.46.06 2.25h-.04l-5.693-8.526h-.67v9.618h.646v-6.238c0-.518-.027-1.284-.08-2.303h.053l5.698 8.542h.678v-9.618h-.65v6.277zM60.405 81.957c-1.048-.77-2.824-1.314-5.334-1.64-1.44-.187-3.042-.315-4.808-.384l-.037-.07H46.15L45 81.013v33.323l1.15 1.15h4.075l1.116-1.15v-14.36c1.093-.046 2.092-.114 2.998-.207 2.394-.233 4.09-.663 5.09-1.29 1.72-1.07 3.056-2.36 4.008-3.87.93-1.487 1.395-3.055 1.395-4.706 0-3.115-1.475-5.762-4.425-7.947zM56.08 92.97c-.744.28-2.322.465-4.74.558v-7.11c2.72.187 4.497.455 5.334.802 1.138.885 1.707 1.778 1.707 2.685.002 1.043-.764 2.067-2.3 3.066zM72.783 178.424h.67v9.618h-.67zM146.635 152.847l1.117-.838 1.672-6.134h9.725l1.706 6.133 1.082.837h3.52l1.115-1.43-9.166-33.426-1.082-.835h-4.043l-1.115.836-9.133 33.428 1.117 1.43h3.485zm7.67-24.712l3.102 11.293h-6.205l3.103-11.293zM108.373 162.817c.435.464.92.92 1.456 1.36h.458v-.105c-.762-.843-1.292-1.526-1.592-2.052h-.645c-.177.293-.42.635-.724 1.025-.306.392-.594.733-.865 1.026v.106h.46c.496-.406.982-.86 1.453-1.36zM121.685 178.382l-3.87 9.66h.743l1.344-3.395h3.908l1.336 3.395h.756l-3.79-9.66h-.427zm1.903 5.66h-3.44l1.347-3.454c.14-.342.27-.723.39-1.146.153.483.284.86.392 1.13l1.31 3.47zM147.225 185.66c-.258.694-.432 1.205-.52 1.532-.127-.494-.373-1.236-.742-2.223l-2.42-6.547h-.72l3.587 9.618h.594l3.598-9.617h-.73l-2.647 7.238zM147.922 171.172l1.336 3.395h.756l-3.79-9.66h-.427l-3.87 9.66h.743l1.344-3.395h3.908zm-2.317-4.06c.14-.342.27-.723.39-1.144.153.483.284.86.392 1.13l1.312 3.47h-3.442l1.347-3.455zM156.627 178.382l-3.87 9.66h.743l1.344-3.395h3.908l1.336 3.395h.756l-3.79-9.66h-.427zm1.902 5.66h-3.442l1.348-3.454c.14-.342.27-.723.39-1.146.153.483.284.86.392 1.13l1.31 3.47zM191.307 132.074c.51-1.233.777-2.94.8-5.124.048-3.278-.487-5.508-1.604-6.692-1.766-1.837-3.902-2.755-6.412-2.755-1.02 0-2.02.176-2.997.523l-.14-.14h-3.974l-1.114 1.116v32.45l1.113 1.116h3.974l.488-.488c1.23.51 2.508.767 3.834.767 2.812 0 5.227-1.058 7.25-3.173 1.3-1.323 1.977-4.03 2.02-8.12.048-4.043-.532-6.74-1.743-8.088-.463-.51-.963-.975-1.496-1.392zm-8.715-7.982c.465-.303.965-.454 1.498-.454.627 0 1.195.21 1.71.628.417 1.766.392 3.497-.07 5.192-.513.374-1.06.56-1.64.56-.58 0-1.115-.176-1.604-.522-.463-1.838-.43-3.637.106-5.404zm5.332 21.506c-.79.742-1.674 1.114-2.648 1.114-.955 0-1.824-.36-2.615-1.08-.276-.906-.392-2.335-.345-4.286.02-1.954.195-3.37.52-4.253.743-.627 1.558-.942 2.44-.942 1.02 0 1.94.41 2.754 1.223.276.88.403 2.254.382 4.112-.047 1.88-.21 3.253-.488 4.113zM128.123 179.054h3.127v8.988h.676v-8.988h3.127v-.63h-6.93zM137.742 164.95h.668v9.617h-.668zM133.437 174.363v-.592c-.676.207-1.416.312-2.223.312-1.217 0-2.15-.38-2.803-1.138-.653-.76-.98-1.825-.98-3.2 0-1.34.347-2.398 1.04-3.17.693-.77 1.643-1.158 2.85-1.158.77 0 1.508.177 2.21.525l.27-.604c-.74-.35-1.58-.525-2.52-.525-.923 0-1.73.204-2.425.61-.695.404-1.23.98-1.6 1.726-.37.747-.555 1.61-.555 2.587 0 1.565.387 2.784 1.164 3.658.775.873 1.84 1.31 3.19 1.31.956 0 1.75-.113 2.383-.337zM138.635 178.424h.67v9.618h-.67z"/><path d="M86.31 165.968c-.12.422-.248.803-.387 1.145l-1.35 3.453h3.442l-1.312-3.468c-.106-.27-.238-.647-.392-1.13zM146.387 167.1c-.107-.272-.238-.65-.393-1.132-.12.422-.248.803-.39 1.145l-1.347 3.453h3.44l-1.31-3.467zM56.675 87.22c-.838-.348-2.616-.616-5.334-.802v7.11c2.42-.094 3.997-.28 4.742-.558 1.534-1 2.3-2.022 2.3-3.067 0-.906-.57-1.8-1.707-2.684zM114.08 181.128c0-.733-.22-1.266-.658-1.6-.44-.333-1.154-.5-2.146-.5h-1.592v4.244h1.836c.81 0 1.44-.182 1.89-.543.445-.362.67-.897.67-1.602zM121.494 180.588l-1.348 3.453h3.44l-1.31-3.467c-.108-.27-.24-.648-.394-1.13-.118.422-.25.803-.388 1.145zM119.277 6.956C58.827 6.956 9.823 55.96 9.823 116.41c0 60.45 49.004 109.453 109.454 109.453 60.45 0 109.453-49.004 109.453-109.453 0-60.45-49.003-109.454-109.453-109.454zm57.086 73.92l1.15-1.15h15.197l1.15 1.15v4.08l-1.15 1.15h-9.97v6.27h8.47l1.115 1.15v4.08l-1.115 1.15h-8.47v10.35h9.97l1.15 1.15v4.08l-1.15 1.15h-15.197l-1.15-1.15v-33.46zm-31.568.138l1.148-1.15h17.045l1.15 1.15v4.08l-1.15 1.15h-5.334v28.093l-1.148 1.15h-4.078l-1.15-1.15V86.244h-5.334l-1.148-1.15v-4.08zm6.37 36.977l1.116-.835h4.044l1.082.836 9.166 33.428-1.115 1.43h-3.52l-1.082-.84-1.707-6.132h-9.725l-1.672 6.133-1.116.837h-3.484l-1.117-1.43 9.133-33.426zM112.53 81.015l1.15-1.15h4.08l1.112 1.15v1.324l7.076 15.825v-17.15l1.15-1.15h4.045l1.15 1.15v33.324l-1.15 1.15h-4.044l-.697-.662-.454-.488v-.557l-7.076-15.824v16.38l-1.113 1.15h-4.078l-1.152-1.15V81.015zm-.016 37.187l1.15-1.15h4.076l1.15 1.15v28.267h11.572l1.15 1.15v4.08l-1.15 1.15h-16.8l-1.15-1.15V118.2zm-6.05 45.872c.27-.293.558-.635.864-1.026.305-.39.547-.732.725-1.025h.646c.3.526.83 1.21 1.592 2.053v.105h-.46c-.534-.44-1.02-.896-1.455-1.36-.47.5-.957.953-1.453 1.36h-.46v-.106zm-28.5-66.638c.045-2.673.21-5.057.487-7.146.35-2.673.917-4.543 1.706-5.61 2.323-3.14 5.112-4.708 8.365-4.708 1.72 0 3.372.5 4.952 1.498 1.58 1.002 2.938 2.406 4.076 4.22 1.092 1.742 1.64 5.473 1.64 11.187v1.045c-.025 2.582-.152 4.87-.385 6.868-.325 2.558-.835 4.357-1.534 5.403-2.348 3.532-5.264 5.298-8.75 5.298-3.51 0-6.436-1.766-8.783-5.297-.72-1.07-1.22-2.94-1.5-5.612-.186-1.88-.278-3.996-.278-6.343v-.8zM63.435 94.61c-.953 1.51-2.288 2.8-4.008 3.87-1 .627-2.696 1.057-5.09 1.29-.906.092-1.905.16-2.997.206v14.36l-1.115 1.15H46.15l-1.15-1.15V81.015l1.15-1.15h4.075l.037.07c1.766.07 3.368.197 4.81.383 2.51.326 4.286.872 5.333 1.64 2.95 2.186 4.426 4.833 4.426 7.947 0 1.65-.464 3.218-1.394 4.706zm1.516 75.898h15v.5h-15v-.5zm8.5 17.534h-.67v-9.618h.67v9.618zm11.875 0h-.677l-5.698-8.54h-.054c.054 1.018.08 1.784.08 2.302v6.238h-.644v-9.618h.67l5.692 8.526h.04c-.04-.79-.06-1.54-.06-2.25v-6.276h.65v9.618zm-.996-16.87l-1.342 3.395h-.743l3.87-9.66h.426l3.79 9.66h-.756l-1.336-3.395H84.33zm11.51 7.882H92.71v8.988h-.676v-8.988H88.91v-.63h6.93v.63zm-1.29-5.642c-.81-.857-1.214-2.07-1.214-3.642 0-.978.2-1.844.6-2.602.402-.757.978-1.34 1.726-1.754.747-.412 1.607-.617 2.574-.617 1.05 0 1.99.192 2.823.578l-.27.604c-.835-.387-1.697-.58-2.594-.58-1.268 0-2.27.394-3.017 1.175-.743.784-1.114 1.84-1.114 3.168 0 1.448.352 2.538 1.057 3.27.706.73 1.744 1.093 3.112 1.093.887 0 1.64-.124 2.257-.374v-3.382h-2.86v-.63h3.546v4.386c-.93.396-1.976.594-3.14.594-1.517 0-2.68-.43-3.488-1.288zm10.13 5.63h-4.585v3.637h4.33v.62h-4.33v4.124h4.586v.618h-5.255v-9.618h5.256v.618zm1.07-14.093h5.256v.617h-4.587v3.637h4.33v.62h-4.33v4.125h4.586v.617h-5.256v-9.618zm8.803 23.092l-2.48-4.19h-2.39v4.19h-.668v-9.618h2.29c1.193 0 2.076.22 2.644.66.567.44.854 1.104.854 1.99 0 .645-.168 1.19-.512 1.63-.338.445-.854.764-1.547.956l2.613 4.382h-.805zm1.433-13.474h-.645v-9.618h.67l5.694 8.526h.04c-.04-.79-.06-1.54-.06-2.25v-6.276h.65v9.618h-.677l-5.697-8.54h-.055c.055 1.018.08 1.784.08 2.302v6.238zm9.16 13.474l-1.336-3.395h-3.908l-1.344 3.395h-.742l3.87-9.66h.427l3.79 9.66h-.757zm1.555-18.31c0-.978.185-1.84.556-2.587.37-.745.904-1.32 1.6-1.727.693-.405 1.502-.608 2.424-.608.94 0 1.78.176 2.52.525l-.268.605c-.703-.35-1.44-.525-2.21-.525-1.208 0-2.157.387-2.85 1.158-.694.77-1.04 1.83-1.04 3.17 0 1.375.326 2.44.98 3.2.652.757 1.586 1.138 2.803 1.138.807 0 1.547-.103 2.223-.31v.592c-.635.225-1.428.337-2.38.337-1.353 0-2.417-.44-3.192-1.31-.778-.874-1.165-2.093-1.165-3.658zm8.353 9.322h-3.127v8.988h-.676v-8.988h-3.127v-.63h6.93v.63zm3.357-4.486h-.668v-9.618h.668v9.618zm.895 13.474h-.67v-9.618h.67v9.618zm2.623-13.474l3.87-9.66h.427l3.79 9.66h-.757l-1.336-3.395h-3.908l-1.344 3.395h-.742zm5.076 13.474h-.594l-3.586-9.618h.72l2.42 6.546c.368.986.614 1.73.74 2.223.09-.327.263-.838.52-1.53l2.647-7.238h.73l-3.596 9.617zm13.084 0l-1.336-3.395h-3.908l-1.344 3.395h-.742l3.87-9.66h.425l3.79 9.66h-.755zm6.864-17.034h-15v-.5h15v.5zm25.573-21.334c-2.023 2.115-4.438 3.173-7.25 3.173-1.326 0-2.604-.256-3.834-.767l-.487.488h-3.975l-1.113-1.116v-32.45l1.113-1.116h3.975l.14.14c.976-.347 1.976-.523 2.997-.523 2.51 0 4.646.918 6.412 2.755 1.117 1.184 1.652 3.414 1.605 6.692-.023 2.184-.29 3.89-.8 5.124.532.417 1.032.882 1.495 1.392 1.21 1.35 1.79 4.045 1.744 8.087-.044 4.092-.72 6.798-2.02 8.12zM185.275 136.15c-.883 0-1.697.316-2.44.943-.325.882-.5 2.3-.52 4.253-.047 1.95.068 3.38.346 4.286.792.72 1.66 1.08 2.616 1.08.975 0 1.86-.372 2.648-1.114.277-.86.44-2.232.488-4.113.02-1.858-.105-3.23-.383-4.112-.815-.814-1.733-1.222-2.755-1.222zM184.09 130.018c.58 0 1.127-.186 1.64-.56.462-1.695.487-3.427.07-5.192-.515-.418-1.083-.628-1.71-.628-.533 0-1.033.15-1.498.454-.535 1.767-.568 3.566-.105 5.403.488.347 1.023.523 1.603.523zM156.435 180.588l-1.348 3.453h3.44l-1.31-3.467c-.108-.27-.24-.648-.394-1.13-.118.422-.25.803-.388 1.145zM154.305 128.135l-3.104 11.293h6.206zM88.522 109.145c1.21 0 2.36-.804 3.45-2.405.558-1.256.86-4.206.907-8.854v-.59c0-4.3-.245-7.064-.733-8.298-1.138-1.788-2.347-2.685-3.625-2.685-1.116 0-2.184.675-3.207 2.022-.604 1.324-.94 4.392-1.01 9.2v1.5c0 3.952.255 6.52.766 7.704 1.093 1.6 2.243 2.405 3.452 2.405z"/></svg>