<?xml version="1.0" encoding="utf-8"?>
<!-- Generator: Adobe Illustrator 17.0.0, SVG Export Plug-In . SVG Version: 6.00 Build 0)  -->
<!DOCTYPE svg PUBLIC "-//W3C//DTD SVG 1.1//EN" "http://www.w3.org/Graphics/SVG/1.1/DTD/svg11.dtd">
<svg version="1.1" id="Camada_1" xmlns="http://www.w3.org/2000/svg" xmlns:xlink="http://www.w3.org/1999/xlink" x="0px" y="0px"
	 width="236.364px" height="233.333px" viewBox="0 0 236.364 233.333" enable-background="new 0 0 236.364 233.333"
	 xml:space="preserve">
<g>
	<polygon fill="none" points="99.425,188.042 104.681,188.042 104.681,187.424 100.094,187.424 100.094,183.299 104.424,183.299 
		104.424,182.679 100.094,182.679 100.094,179.042 104.681,179.042 104.681,178.424 99.425,178.424 	"/>
	<polygon fill="none" points="192.711,115.488 193.861,114.337 193.861,110.259 192.711,109.109 182.74,109.109 182.74,98.757 
		191.211,98.757 192.326,97.607 192.326,93.528 191.211,92.377 182.74,92.377 182.74,86.106 192.711,86.106 193.861,84.955 
		193.861,80.875 192.711,79.725 177.514,79.725 176.363,80.875 176.363,114.337 177.514,115.488 	"/>
	<path fill="none" d="M90.331,174.568l-3.79-9.66h-0.427l-3.869,9.66h0.743l1.343-3.395h3.908l1.336,3.395H90.331z M84.575,170.567
		l1.349-3.453c0.139-0.343,0.269-0.724,0.388-1.145c0.154,0.483,0.286,0.859,0.393,1.131l1.312,3.468H84.575z"/>
	<path fill="none" d="M101.179,169.719h-3.546v0.631h2.86v3.382c-0.618,0.25-1.37,0.374-2.257,0.374
		c-1.368,0-2.406-0.364-3.112-1.094c-0.705-0.73-1.057-1.82-1.057-3.269c0-1.328,0.371-2.384,1.113-3.168
		c0.745-0.781,1.749-1.175,3.017-1.175c0.896,0,1.758,0.193,2.594,0.579l0.269-0.604c-0.832-0.386-1.773-0.578-2.823-0.578
		c-0.967,0-1.827,0.205-2.574,0.617c-0.747,0.413-1.324,0.997-1.725,1.754c-0.4,0.758-0.601,1.624-0.601,2.602
		c0,1.57,0.403,2.784,1.214,3.642c0.809,0.857,1.971,1.287,3.49,1.287c1.163,0,2.208-0.198,3.139-0.594V169.719z"/>
	<polygon fill="none" points="88.91,179.054 92.037,179.054 92.037,188.042 92.713,188.042 92.713,179.054 95.839,179.054 
		95.839,178.424 88.91,178.424 	"/>
	<polygon fill="none" points="151.277,86.244 151.277,114.337 152.428,115.488 156.506,115.488 157.654,114.337 157.654,86.244 
		162.988,86.244 164.139,85.094 164.139,81.014 162.988,79.863 145.943,79.863 144.795,81.014 144.795,85.094 145.943,86.244 	"/>
	<path fill="none" d="M115.961,166.027l5.697,8.541h0.676v-9.618h-0.649v6.276c0,0.709,0.02,1.461,0.059,2.25h-0.039l-5.693-8.526
		h-0.67v9.618h0.645v-6.238c0-0.518-0.025-1.284-0.08-2.303H115.961z"/>
	<path fill="none" d="M114.291,182.705c0.344-0.441,0.512-0.986,0.512-1.631c0-0.887-0.287-1.549-0.855-1.991
		c-0.568-0.439-1.451-0.659-2.645-0.659h-2.289v9.618h0.669v-4.191h2.389l2.48,4.191h0.805l-2.613-4.382
		C113.437,183.468,113.953,183.15,114.291,182.705z M111.519,183.273h-1.836v-4.245h1.592c0.992,0,1.707,0.168,2.146,0.5
		c0.438,0.335,0.658,0.867,0.658,1.601c0,0.705-0.225,1.24-0.672,1.602C112.961,183.091,112.33,183.273,111.519,183.273z"/>
	<polygon fill="none" points="111.007,173.949 106.42,173.949 106.42,169.824 110.75,169.824 110.75,169.204 106.42,169.204 
		106.42,165.568 111.007,165.568 111.007,164.949 105.75,164.949 105.75,174.568 111.007,174.568 	"/>
	<polygon fill="none" points="117.758,115.488 118.871,114.337 118.871,97.956 125.947,113.78 125.947,114.337 126.4,114.825 
		127.098,115.488 131.143,115.488 132.293,114.337 132.293,81.014 131.143,79.863 127.098,79.863 125.947,81.014 125.947,98.163 
		118.871,82.338 118.871,81.014 117.758,79.863 113.68,79.863 112.528,81.014 112.528,114.337 113.68,115.488 	"/>
	<polygon fill="none" points="130.461,152.847 131.611,151.696 131.611,147.617 130.461,146.467 118.889,146.467 118.889,118.201 
		117.738,117.051 113.662,117.051 112.512,118.201 112.512,151.696 113.662,152.847 	"/>
	<path fill="none" d="M79.739,110.191c2.347,3.531,5.273,5.297,8.783,5.297c3.485,0,6.401-1.766,8.749-5.297
		c0.699-1.046,1.209-2.846,1.534-5.403c0.232-1.998,0.359-4.286,0.384-6.868v-1.045c0-5.715-0.547-9.445-1.639-11.188
		c-1.138-1.812-2.496-3.217-4.076-4.219c-1.58-0.999-3.231-1.498-4.951-1.498c-3.253,0-6.042,1.568-8.365,4.708
		c-0.789,1.067-1.358,2.938-1.707,5.61c-0.278,2.09-0.442,4.474-0.488,7.146v0.801c0,2.347,0.093,4.462,0.278,6.343
		C78.518,107.249,79.019,109.12,79.739,110.191z M84.304,97.536c0.071-4.81,0.408-7.877,1.011-9.201
		c1.023-1.348,2.091-2.022,3.207-2.022c1.277,0,2.486,0.896,3.625,2.685c0.488,1.233,0.732,3.998,0.732,8.297v0.591
		c-0.046,4.648-0.349,7.599-0.906,8.854c-1.092,1.602-2.242,2.405-3.451,2.405s-2.359-0.804-3.451-2.405
		c-0.511-1.185-0.767-3.752-0.767-7.704V97.536z"/>
	<path fill="none" d="M84.677,184.701c0,0.708,0.02,1.46,0.059,2.249h-0.039l-5.693-8.526h-0.669v9.618h0.645v-6.238
		c0-0.518-0.027-1.284-0.081-2.303h0.054l5.698,8.541h0.677v-9.618h-0.65V184.701z"/>
	<path fill="none" d="M60.405,81.957c-1.048-0.769-2.824-1.314-5.334-1.641c-1.441-0.186-3.043-0.314-4.809-0.383l-0.037-0.07
		h-4.076l-1.15,1.15v33.323l1.15,1.15h4.076l1.116-1.15V99.976c1.092-0.046,2.091-0.114,2.997-0.207
		c2.394-0.232,4.091-0.662,5.09-1.29c1.72-1.069,3.056-2.359,4.008-3.869c0.93-1.487,1.395-3.055,1.395-4.706
		C64.831,86.789,63.355,84.142,60.405,81.957z M56.081,92.971c-0.745,0.278-2.323,0.464-4.741,0.557v-7.109
		c2.719,0.186,4.497,0.454,5.334,0.801c1.138,0.885,1.707,1.778,1.707,2.685C58.382,90.948,57.616,91.972,56.081,92.971z"/>
	<rect x="72.783" y="178.424" fill="none" width="0.669" height="9.618"/>
	<path fill="none" d="M146.635,152.847l1.117-0.838l1.672-6.133h9.725l1.707,6.133l1.082,0.838h3.52l1.115-1.429l-9.166-33.427
		l-1.082-0.836h-4.043l-1.115,0.836l-9.133,33.427l1.117,1.429H146.635z M154.305,128.135l3.102,11.293h-6.205L154.305,128.135z"/>
	<path fill="none" d="M108.373,162.817c0.435,0.464,0.921,0.919,1.456,1.36h0.459v-0.105c-0.762-0.843-1.292-1.526-1.592-2.052
		h-0.645c-0.178,0.293-0.42,0.635-0.725,1.025c-0.306,0.392-0.594,0.733-0.865,1.026v0.105h0.459
		C107.416,163.77,107.902,163.316,108.373,162.817z"/>
	<path fill="none" d="M121.685,178.382l-3.869,9.66h0.742l1.344-3.395h3.908l1.336,3.395h0.756l-3.789-9.66H121.685z
		 M123.588,184.041h-3.441l1.348-3.453c0.139-0.342,0.27-0.723,0.389-1.146c0.154,0.483,0.285,0.859,0.393,1.131L123.588,184.041z"
		/>
	<path fill="none" d="M147.225,185.661c-0.258,0.693-0.432,1.204-0.52,1.531c-0.127-0.494-0.373-1.236-0.742-2.223l-2.42-6.546
		h-0.719l3.586,9.618h0.594l3.598-9.618h-0.73L147.225,185.661z"/>
	<path fill="none" d="M147.922,171.172l1.336,3.395h0.756l-3.789-9.66h-0.428l-3.869,9.66h0.742l1.344-3.395H147.922z
		 M145.605,167.113c0.141-0.343,0.27-0.724,0.389-1.145c0.154,0.483,0.285,0.859,0.393,1.131l1.312,3.468h-3.441L145.605,167.113z"
		/>
	<path fill="none" d="M156.627,178.382l-3.869,9.66h0.742l1.344-3.395h3.908l1.336,3.395h0.756l-3.791-9.66H156.627z
		 M158.529,184.041h-3.441l1.348-3.453c0.139-0.342,0.27-0.723,0.389-1.146c0.154,0.483,0.285,0.859,0.393,1.131L158.529,184.041z"
		/>
	<path fill="none" d="M191.307,132.074c0.51-1.233,0.777-2.94,0.801-5.124c0.047-3.278-0.488-5.508-1.605-6.692
		c-1.766-1.837-3.902-2.755-6.412-2.755c-1.021,0-2.021,0.176-2.998,0.523l-0.139-0.14h-3.975l-1.113,1.116v32.45l1.113,1.116h3.975
		l0.488-0.488c1.23,0.511,2.508,0.767,3.834,0.767c2.812,0,5.227-1.058,7.25-3.173c1.301-1.323,1.977-4.029,2.021-8.121
		c0.047-4.042-0.533-6.738-1.744-8.087C192.34,132.956,191.84,132.491,191.307,132.074z M182.592,124.092
		c0.465-0.303,0.965-0.454,1.498-0.454c0.627,0,1.195,0.21,1.709,0.628c0.418,1.766,0.393,3.497-0.07,5.192
		c-0.512,0.374-1.059,0.56-1.639,0.56c-0.58,0-1.115-0.176-1.604-0.522C182.023,127.658,182.057,125.859,182.592,124.092z
		 M187.924,145.598c-0.789,0.742-1.674,1.114-2.648,1.114c-0.955,0-1.824-0.359-2.615-1.08c-0.277-0.906-0.393-2.335-0.346-4.286
		c0.021-1.954,0.195-3.371,0.521-4.253c0.742-0.627,1.557-0.942,2.439-0.942c1.021,0,1.939,0.408,2.754,1.222
		c0.277,0.881,0.404,2.254,0.383,4.112C188.365,143.365,188.201,144.738,187.924,145.598z"/>
	<polygon fill="none" points="128.123,179.054 131.25,179.054 131.25,188.042 131.926,188.042 131.926,179.054 135.053,179.054 
		135.053,178.424 128.123,178.424 	"/>
	<rect x="137.742" y="164.949" fill="none" width="0.668" height="9.618"/>
	<path fill="none" d="M133.437,174.363v-0.592c-0.676,0.206-1.416,0.311-2.223,0.311c-1.217,0-2.15-0.381-2.803-1.138
		c-0.654-0.76-0.98-1.825-0.98-3.2c0-1.341,0.346-2.398,1.039-3.17c0.693-0.771,1.643-1.158,2.85-1.158
		c0.771,0,1.508,0.177,2.211,0.525l0.268-0.605c-0.74-0.35-1.58-0.525-2.52-0.525c-0.922,0-1.73,0.203-2.424,0.608
		c-0.695,0.405-1.229,0.982-1.6,1.727c-0.371,0.747-0.555,1.609-0.555,2.587c0,1.565,0.387,2.784,1.164,3.658
		c0.775,0.872,1.84,1.31,3.191,1.31C132.01,174.699,132.803,174.587,133.437,174.363z"/>
	<rect x="138.635" y="178.424" fill="none" width="0.67" height="9.618"/>
	<path d="M86.311,165.968c-0.12,0.422-0.249,0.803-0.388,1.145l-1.349,3.453h3.441l-1.312-3.468
		C86.597,166.827,86.465,166.451,86.311,165.968z"/>
	<path d="M146.387,167.099c-0.107-0.271-0.238-0.648-0.393-1.131c-0.119,0.422-0.248,0.803-0.389,1.145l-1.348,3.453h3.441
		L146.387,167.099z"/>
	<path d="M56.675,87.219c-0.838-0.347-2.616-0.615-5.334-0.801v7.109c2.418-0.093,3.996-0.278,4.741-0.557
		c1.534-0.999,2.301-2.022,2.301-3.067C58.382,88.997,57.813,88.104,56.675,87.219z"/>
	<path d="M114.08,181.128c0-0.733-0.221-1.266-0.658-1.601c-0.439-0.332-1.154-0.5-2.146-0.5h-1.592v4.245h1.836
		c0.811,0,1.441-0.182,1.889-0.543C113.855,182.368,114.08,181.833,114.08,181.128z"/>
	<path d="M121.494,180.588l-1.348,3.453h3.441l-1.312-3.468c-0.107-0.271-0.238-0.648-0.393-1.131
		C121.764,179.865,121.633,180.246,121.494,180.588z"/>
	<path d="M119.277,6.956C58.827,6.956,9.823,55.96,9.823,116.41c0,60.449,49.004,109.453,109.454,109.453
		c60.449,0,109.453-49.004,109.453-109.453C228.73,55.96,179.727,6.956,119.277,6.956z M176.363,80.875l1.15-1.15h15.197l1.15,1.15
		v4.08l-1.15,1.15h-9.971v6.271h8.471l1.115,1.15v4.079l-1.115,1.15h-8.471v10.352h9.971l1.15,1.15v4.078l-1.15,1.15h-15.197
		l-1.15-1.15V80.875z M144.795,81.014l1.148-1.15h17.045l1.15,1.15v4.08l-1.15,1.15h-5.334v28.093l-1.148,1.15h-4.078l-1.15-1.15
		V86.244h-5.334l-1.148-1.15V81.014z M151.166,117.991l1.115-0.836h4.043l1.082,0.836l9.166,33.427l-1.115,1.429h-3.52l-1.082-0.838
		l-1.707-6.133h-9.725l-1.672,6.133l-1.117,0.838h-3.484l-1.117-1.429L151.166,117.991z M112.528,81.014l1.151-1.15h4.078
		l1.113,1.15v1.324l7.076,15.825V81.014l1.15-1.15h4.045l1.15,1.15v33.323l-1.15,1.15h-4.045l-0.697-0.662l-0.453-0.488v-0.557
		l-7.076-15.824v16.381l-1.113,1.15h-4.078l-1.151-1.15V81.014z M112.512,118.201l1.15-1.15h4.076l1.15,1.15v28.266h11.572
		l1.15,1.15v4.079l-1.15,1.15h-16.799l-1.15-1.15V118.201z M106.461,164.072c0.271-0.293,0.559-0.635,0.865-1.026
		c0.305-0.391,0.547-0.732,0.725-1.025h0.645c0.3,0.525,0.831,1.209,1.592,2.052v0.105h-0.459c-0.535-0.441-1.021-0.896-1.456-1.36
		c-0.471,0.499-0.957,0.953-1.453,1.36h-0.459V164.072z M77.961,97.434c0.046-2.673,0.21-5.057,0.488-7.146
		c0.35-2.673,0.918-4.543,1.707-5.61c2.323-3.14,5.112-4.708,8.365-4.708c1.719,0,3.371,0.499,4.951,1.498
		c1.58,1.002,2.938,2.406,4.076,4.219c1.092,1.743,1.639,5.474,1.639,11.188v1.045c-0.024,2.582-0.151,4.87-0.384,6.868
		c-0.325,2.558-0.835,4.357-1.534,5.403c-2.347,3.531-5.263,5.297-8.749,5.297c-3.51,0-6.436-1.766-8.783-5.297
		c-0.72-1.07-1.221-2.941-1.5-5.613c-0.186-1.881-0.278-3.996-0.278-6.343V97.434z M63.436,94.61c-0.953,1.51-2.288,2.8-4.008,3.869
		c-0.999,0.628-2.696,1.058-5.09,1.29c-0.906,0.093-1.905,0.161-2.997,0.207v14.361l-1.116,1.15h-4.076l-1.15-1.15V81.014l1.15-1.15
		h4.076l0.037,0.07c1.766,0.069,3.368,0.197,4.809,0.383c2.511,0.326,4.287,0.872,5.334,1.641c2.95,2.185,4.426,4.832,4.426,7.946
		C64.831,91.555,64.366,93.122,63.436,94.61z M64.952,170.508h15v0.5h-15V170.508z M73.452,188.042h-0.669v-9.618h0.669V188.042z
		 M85.327,188.042H84.65l-5.698-8.541h-0.054c0.054,1.019,0.081,1.785,0.081,2.303v6.238h-0.645v-9.618h0.669l5.693,8.526h0.039
		c-0.039-0.789-0.059-1.541-0.059-2.249v-6.277h0.65V188.042z M84.331,171.172l-1.343,3.395h-0.743l3.869-9.66h0.427l3.79,9.66
		h-0.757l-1.336-3.395H84.331z M95.839,179.054h-3.127v8.988h-0.676v-8.988H88.91v-0.63h6.929V179.054z M94.55,173.412
		c-0.811-0.857-1.214-2.071-1.214-3.642c0-0.978,0.2-1.844,0.601-2.602c0.401-0.757,0.977-1.341,1.725-1.754
		c0.747-0.412,1.607-0.617,2.574-0.617c1.05,0,1.991,0.192,2.823,0.578l-0.269,0.604c-0.835-0.386-1.697-0.579-2.594-0.579
		c-1.268,0-2.271,0.394-3.017,1.175c-0.742,0.784-1.113,1.84-1.113,3.168c0,1.448,0.352,2.538,1.057,3.269
		c0.706,0.73,1.744,1.094,3.112,1.094c0.887,0,1.639-0.124,2.257-0.374v-3.382h-2.86v-0.631h3.546v4.387
		c-0.931,0.396-1.976,0.594-3.139,0.594C96.521,174.699,95.358,174.27,94.55,173.412z M104.681,179.042h-4.586v3.637h4.33v0.62
		h-4.33v4.125h4.586v0.618h-5.256v-9.618h5.256V179.042z M105.75,164.949h5.256v0.618h-4.587v3.637h4.331v0.62h-4.331v4.125h4.587
		v0.618h-5.256V164.949z M114.553,188.042l-2.48-4.191h-2.389v4.191h-0.669v-9.618h2.289c1.194,0,2.077,0.22,2.645,0.659
		c0.568,0.442,0.855,1.105,0.855,1.991c0,0.645-0.168,1.189-0.512,1.631c-0.338,0.444-0.854,0.763-1.547,0.955l2.613,4.382H114.553z
		 M115.986,174.568h-0.645v-9.618h0.67l5.693,8.526h0.039c-0.039-0.789-0.059-1.541-0.059-2.25v-6.276h0.649v9.618h-0.676
		l-5.697-8.541h-0.055c0.055,1.019,0.08,1.785,0.08,2.303V174.568z M125.146,188.042l-1.336-3.395h-3.908l-1.344,3.395h-0.742
		l3.869-9.66h0.428l3.789,9.66H125.146z M126.701,169.732c0-0.978,0.184-1.84,0.555-2.587c0.371-0.745,0.904-1.321,1.6-1.727
		c0.693-0.405,1.502-0.608,2.424-0.608c0.939,0,1.779,0.176,2.52,0.525l-0.268,0.605c-0.703-0.349-1.439-0.525-2.211-0.525
		c-1.207,0-2.156,0.387-2.85,1.158c-0.693,0.771-1.039,1.829-1.039,3.17c0,1.375,0.326,2.441,0.98,3.2
		c0.652,0.757,1.586,1.138,2.803,1.138c0.807,0,1.547-0.104,2.223-0.311v0.592c-0.635,0.225-1.428,0.337-2.381,0.337
		c-1.352,0-2.416-0.438-3.191-1.31C127.088,172.516,126.701,171.297,126.701,169.732z M135.053,179.054h-3.127v8.988h-0.676v-8.988
		h-3.127v-0.63h6.93V179.054z M138.41,174.568h-0.668v-9.618h0.668V174.568z M139.305,188.042h-0.67v-9.618h0.67V188.042z
		 M141.928,174.568l3.869-9.66h0.428l3.789,9.66h-0.756l-1.336-3.395h-3.908l-1.344,3.395H141.928z M147.004,188.042h-0.594
		l-3.586-9.618h0.719l2.42,6.546c0.369,0.986,0.615,1.729,0.742,2.223c0.088-0.327,0.262-0.838,0.52-1.531l2.646-7.237h0.73
		L147.004,188.042z M160.088,188.042l-1.336-3.395h-3.908l-1.344,3.395h-0.742l3.869-9.66h0.426l3.791,9.66H160.088z
		 M166.952,171.008h-15v-0.5h15V171.008z M192.525,149.674c-2.023,2.115-4.438,3.173-7.25,3.173c-1.326,0-2.604-0.256-3.834-0.767
		l-0.488,0.488h-3.975l-1.113-1.116v-32.45l1.113-1.116h3.975l0.139,0.14c0.977-0.347,1.977-0.523,2.998-0.523
		c2.51,0,4.646,0.918,6.412,2.755c1.117,1.184,1.652,3.414,1.605,6.692c-0.023,2.184-0.291,3.891-0.801,5.124
		c0.533,0.417,1.033,0.882,1.496,1.392c1.211,1.349,1.791,4.045,1.744,8.087C194.502,145.645,193.826,148.351,192.525,149.674z"/>
	<path d="M185.275,136.151c-0.883,0-1.697,0.315-2.439,0.942c-0.326,0.882-0.5,2.299-0.521,4.253
		c-0.047,1.951,0.068,3.38,0.346,4.286c0.791,0.721,1.66,1.08,2.615,1.08c0.975,0,1.859-0.372,2.648-1.114
		c0.277-0.859,0.441-2.232,0.488-4.113c0.021-1.858-0.105-3.231-0.383-4.112C187.215,136.559,186.297,136.151,185.275,136.151z"/>
	<path d="M184.09,130.018c0.58,0,1.127-0.186,1.639-0.56c0.463-1.695,0.488-3.427,0.07-5.192c-0.514-0.418-1.082-0.628-1.709-0.628
		c-0.533,0-1.033,0.151-1.498,0.454c-0.535,1.767-0.568,3.566-0.105,5.403C182.975,129.842,183.51,130.018,184.09,130.018z"/>
	<path d="M156.435,180.588l-1.348,3.453h3.441l-1.312-3.468c-0.107-0.271-0.238-0.648-0.393-1.131
		C156.705,179.865,156.574,180.246,156.435,180.588z"/>
	<polygon points="154.305,128.135 151.201,139.428 157.406,139.428 	"/>
	<path d="M88.522,109.145c1.209,0,2.359-0.804,3.451-2.405c0.557-1.256,0.859-4.206,0.906-8.854v-0.591
		c0-4.299-0.244-7.063-0.732-8.297c-1.138-1.788-2.347-2.685-3.625-2.685c-1.116,0-2.184,0.675-3.207,2.022
		c-0.604,1.324-0.94,4.392-1.011,9.201v1.499c0,3.952,0.256,6.52,0.767,7.704C86.163,108.341,87.313,109.145,88.522,109.145z"/>
</g>
</svg>
